HIERARCHY
ROOT Hips
{
  OFFSET 0 0 0
  CHANNELS 6 Xposition Yposition Zposition Zrotation Xrotation Yrotation
  JOINT LeftHip
  {
    OFFSET 3.43 1.42109e-014 5.68434e-014
    CHANNELS 3 Zrotation Xrotation Yrotation
    JOINT LeftKnee
    {
      OFFSET -1.63425e-013 -18.47 -4.26326e-014
      CHANNELS 3 Zrotation Xrotation Yrotation
      JOINT LeftAnkle
      {
        OFFSET -3.90088e-012 -17.95 -2.089e-012
        CHANNELS 3 Zrotation Xrotation Yrotation
        End Site
        {
          OFFSET 0 -3.12 0
        }
      }
    }
  }
  JOINT RightHip
  {
    OFFSET -3.43 0 4.26326e-014
    CHANNELS 3 Zrotation Xrotation Yrotation
    JOINT RightKnee
    {
      OFFSET 2.27374e-013 -18.47 3.69482e-013
      CHANNELS 3 Zrotation Xrotation Yrotation
      JOINT RightAnkle
      {
        OFFSET -5.50671e-012 -17.95 -3.11218e-012
        CHANNELS 3 Zrotation Xrotation Yrotation
        End Site
        {
          OFFSET 0 -3.12 0
        }
      }
    }
  }
  JOINT Chest
  {
    OFFSET -6.39488e-014 4.57 -9.9476e-014
    CHANNELS 3 Zrotation Xrotation Yrotation
    JOINT Chest2
    {
      OFFSET 7.10543e-015 6.57 -2.84217e-014
      CHANNELS 3 Zrotation Xrotation Yrotation
      JOINT LeftCollar
      {
        OFFSET 1.06 4.19 1.76
        CHANNELS 3 Zrotation Xrotation Yrotation
        JOINT LeftShoulder
        {
          OFFSET 5.81 0 7.10543e-014
          CHANNELS 3 Zrotation Xrotation Yrotation
          JOINT LeftElbow
          {
            OFFSET 1.77636e-013 -12.08 6.11067e-013
            CHANNELS 3 Zrotation Xrotation Yrotation
            JOINT LeftWrist
            {
              OFFSET 1.31131e-011 -9.82 2.55795e-012
              CHANNELS 3 Zrotation Xrotation Yrotation
              End Site
              {
                OFFSET 0 -7.37 0
              }
            }
          }
        }
      }
      JOINT RightCollar
      {
        OFFSET -1.06 4.19 1.76
        CHANNELS 3 Zrotation Xrotation Yrotation
        JOINT RightShoulder
        {
          OFFSET -6.06 -7.10543e-015 -1.42109e-014
          CHANNELS 3 Zrotation Xrotation Yrotation
          JOINT RightElbow
          {
            OFFSET -3.12639e-013 -11.08 -5.54223e-013
            CHANNELS 3 Zrotation Xrotation Yrotation
            JOINT RightWrist
            {
              OFFSET 4.69313e-012 -9.82 -1.12408e-011
              CHANNELS 3 Zrotation Xrotation Yrotation
              End Site
              {
                OFFSET 0 -7.14001 0
              }
            }
          }
        }
      }
      JOINT Neck
      {
        OFFSET -1.42109e-014 4.05 -1.42109e-014
        CHANNELS 3 Zrotation Xrotation Yrotation
        JOINT Head
        {
          OFFSET -7.10543e-015 5.19 -2.84217e-014
          CHANNELS 3 Zrotation Xrotation Yrotation
          End Site
          {
            OFFSET 0 4.14001 0
          }
        }
      }
    }
  }
}
MOTION
Frames:	15
Frame Time:	0.0333333
61.1846 39.0038 57.0226 -7.26189 1.84069 -133.351 -9.3601 -2.86671 -8.77241 -0.933496 22.193 8.53185 3.33848 -13.4438 0.393585 -2.31761 -20.5796 -0.922585 -9.2666 64.5491 -1.35869 -4.86676 -5.29143 -0.225024 -2.40827 2.83035 -2.5621 -2.93157 4.30622 -3.44445 4.90021 -0.00169695 1.9485 16.8538 -11.6214 6.21232 -6.81137 -10.8546 -35.6206 6.75416 3.1392 -0.185289 -2.49273 0.190522 -4.34239 -18.7147 3.03832 -1.53473 9.98136 -14.8082 37.5846 -2.86611 -0.0330781 -0.000827507 1.89819 -5.69981 -1.1705 1.76508 -5.8789 -0.365023 
60.3668 38.9799 56.0159 -6.43777 2.12508 -131.938 -7.973 -1.52601 -8.08501 -0.773818 22.5316 6.67167 3.2801 -14.5493 0.418827 -1.81807 -23.2004 -0.372857 -6.38559 55.3527 -6.83427 -5.00738 -6.67578 -0.292232 -1.97423 2.8638 -3.1552 -2.54329 4.30166 -4.20147 5.09904 0.00151564 1.75343 16.7045 -14.3482 5.61205 -6.92223 -11.6721 -35.1863 6.81693 2.96723 -0.176765 -2.46547 0.185788 -4.50938 -18.7881 3.53998 -1.659 10.3143 -16.1456 37.1924 -3.43757 -0.140552 -0.00421762 2.1764 -5.47824 -1.3614 1.84731 -5.78897 -0.39528 
59.52 38.8777 54.9706 -6.03235 2.19606 -130.615 -7.12534 -0.0887444 -7.67564 -0.505974 23.3904 5.14157 3.11306 -16.9826 0.464878 -2.35174 -23.8905 -0.252025 -4.32206 42.5035 -10.7465 -4.14284 -6.83028 -0.247336 -1.81456 2.90996 -3.60903 -2.41493 4.31579 -4.7356 5.26208 0.00369502 1.61549 16.5736 -16.8305 5.03166 -7.06782 -12.8433 -34.6721 6.9998 2.79309 -0.170862 -2.45853 0.183258 -4.61095 -18.779 3.99704 -1.65971 10.6981 -17.2887 37.2926 -3.54217 -0.332369 -0.0102773 2.40664 -5.22918 -1.5908 1.94587 -5.81285 -0.550835 
58.6176 38.6919 53.863 -6.0635 2.02672 -129.443 -6.67262 1.71767 -7.38378 -0.386428 24.1378 3.91699 3.01708 -19.5493 0.519882 -3.56712 -23.0018 -0.251315 -3.29678 28.026 -12.9174 -2.05319 -7.205 -0.12928 -1.94817 2.95669 -3.93214 -2.53595 4.34108 -5.05807 5.37847 0.00509579 1.54277 16.4283 -18.8539 4.48232 -7.26795 -14.4013 -34.2197 7.28992 2.58817 -0.164901 -2.46948 0.182375 -4.6708 -18.7112 4.35177 -1.60247 11.0061 -18.0162 37.7279 -3.25951 -0.548045 -0.0155932 2.57156 -5.01005 -1.82826 2.0243 -5.90556 -0.780083 
57.631 38.4256 52.6471 -6.54237 1.60212 -128.47 -6.37465 4.03713 -6.92196 -0.701484 24.5284 2.71217 3.15827 -22.1502 0.618355 -4.93216 -22.0233 0.0833889 -3.349 16.8799 -13.2602 1.365 -8.50337 0.101482 -2.46257 2.95782 -4.13041 -2.79872 4.33512 -5.21342 5.45721 0.00608183 1.52419 16.2137 -20.2019 3.99343 -7.50454 -16.242 -33.9501 7.63469 2.32587 -0.155212 -2.4939 0.182259 -4.72158 -18.644 4.62333 -1.56906 11.1416 -18.2405 38.2717 -2.83032 -0.732584 -0.0180981 2.6588 -4.83624 -2.04677 2.05748 -5.97458 -1.02488 
56.5708 38.135 51.3004 -7.05221 1.32538 -127.789 -5.64408 7.36761 -6.20027 -1.18846 23.7244 1.13543 3.45781 -24.4728 0.75012 -5.62652 -22.4513 0.276592 -4.0246 14.9561 -12.5368 4.4712 -12.0148 0.470764 -2.91227 2.90964 -4.21185 -3.02963 4.26977 -5.23784 5.5146 0.00694201 1.54574 15.8641 -20.7465 3.60423 -7.72437 -18.1438 -33.8775 7.98088 2.01424 -0.140526 -2.52886 0.182461 -4.77897 -18.5974 4.78721 -1.62182 11.0496 -18.0057 38.6882 -2.47962 -0.837457 -0.0181247 2.65887 -4.66115 -2.21528 2.0402 -5.90398 -1.23121 
55.5139 37.9322 49.8718 -6.99004 1.75248 -127.458 -3.99653 12.4417 -5.4297 -1.24105 19.9383 -0.632182 3.50704 -25.5732 0.796152 -5.06586 -22.7275 0.605788 -4.10381 18.1317 -12.6685 4.34585 -13.4301 0.511919 -2.61541 2.88537 -4.23875 -3.0461 4.15726 -5.15033 5.561 0.00784753 1.60283 15.2925 -20.502 3.34285 -7.85678 -19.8236 -33.8967 8.30305 1.70891 -0.12405 -2.57428 0.183203 -4.83338 -18.5229 4.70385 -1.77985 10.7269 -17.4734 38.7822 -2.31138 -0.836036 -0.0168659 2.57056 -4.41043 -2.30109 1.98604 -5.60227 -1.36093 
54.4509 37.8677 48.3351 -6.53673 2.65319 -127.521 -2.25712 15.3545 -4.61505 -0.951329 20.3917 -1.49127 3.02373 -25.187 0.675674 -3.88366 -22.6872 0.885258 -2.92641 20.4367 -13.4757 2.83189 -6.58633 0.16298 -1.96282 2.73734 -4.17518 -2.73589 3.88187 -4.97739 5.60082 0.00887797 1.69311 14.5033 -19.3317 3.25648 -7.87642 -20.9932 -33.9488 8.57279 1.49634 -0.112159 -2.63103 0.184929 -4.86574 -18.4818 4.58048 -2.02182 10.2836 -16.8678 38.6042 -2.30249 -0.738913 -0.0148492 2.41255 -4.05063 -2.29127 1.91937 -5.0576 -1.40626 
53.3074 37.9554 46.6406 -6.14265 3.57272 -127.966 -0.558514 16.5969 -3.51267 -0.690867 24.2985 -1.59502 1.08638 -22.6601 0.217678 -2.24831 -20.9546 1.69418 -2.19504 22.0128 -12.9613 2.57005 0.27066 -0.00607136 -1.61368 2.34445 -3.89734 -2.10633 3.37543 -4.76634 5.64226 0.0100906 1.8002 13.5908 -17.2611 3.38431 -7.79066 -21.4148 -34.0278 8.7516 1.44366 -0.110476 -2.69834 0.187692 -4.87061 -18.5409 4.64489 -2.29361 9.87215 -16.434 38.3158 -2.38442 -0.591216 -0.0123039 2.22937 -3.64199 -2.2166 1.86638 -4.36641 -1.39982 
52.1528 38.1291 44.9053 -5.69998 4.59042 -128.516 1.43694 14.4405 -1.80311 -0.533002 33.9399 -1.78238 -2.6566 -16.5899 -0.387386 -0.190825 -18.4302 2.87875 -1.87225 23.1715 -11.9451 2.55622 2.65823 -0.0593182 -1.31921 1.89409 -3.52512 -1.28477 2.84626 -4.56712 5.6999 0.0115677 1.89375 12.7347 -14.882 3.71878 -7.58348 -20.9524 -34.1009 8.80242 1.54877 -0.119211 -2.77368 0.191042 -4.8632 -18.6851 4.70226 -2.52139 9.59979 -16.3719 38.0068 -2.52687 -0.472825 -0.0104281 2.07921 -3.32981 -2.14704 1.84886 -3.70093 -1.40523 
51.0799 38.239 43.2695 -5.04677 5.73704 -128.823 3.54816 9.42542 -0.634573 0.636978 46.1133 -0.870636 -7.85002 -3.23822 -0.222239 1.94604 -16.8776 3.94619 -1.26817 26.4708 -12.0057 2.52483 -1.57196 0.0346432 -0.764024 1.63851 -3.28491 -0.487945 2.55874 -4.39808 5.78264 0.0133466 1.94995 12.1948 -12.8632 4.21063 -7.24867 -19.6104 -34.1815 8.6973 1.74316 -0.132568 -2.85574 0.194525 -4.86335 -18.8963 4.469 -2.63831 9.53227 -16.7573 37.7683 -2.75002 -0.473014 -0.0113539 2.00276 -3.2569 -2.15132 1.87984 -3.22808 -1.48675 
50.0584 38.3824 41.7403 -4.72168 6.48566 -128.959 4.12686 3.97258 0.20567 3.09592 57.4308 0.897848 -5.84101 5.70421 0.291249 3.2459 -14.6436 4.49317 -0.253488 28.1019 -12.7749 2.02684 -5.3713 0.0950845 -0.534421 1.52845 -3.01327 0.0555903 2.49432 -4.21492 5.87956 0.0151144 1.96891 11.9987 -11.2632 4.79088 -6.83963 -17.5705 -34.396 8.44572 1.95651 -0.144476 -2.94688 0.19824 -4.87205 -19.0565 3.92866 -2.59979 9.69378 -17.5361 37.7203 -3.08086 -0.619212 -0.016652 1.99505 -3.44838 -2.24891 1.95771 -3.03182 -1.67292 
49.1027 38.5378 40.3607 -4.75275 6.82088 -129.034 3.35312 -1.66898 0.188972 6.90508 66.4576 2.06864 -4.28024 9.12288 0.341639 3.92242 -12.055 4.74706 0.546761 28.473 -13.4747 1.4827 -8.25128 0.106954 -0.550351 1.6209 -2.73695 0.23055 2.67893 -3.91729 5.96083 0.0165465 1.97315 12.2154 -10.0846 5.43228 -6.39579 -15.2043 -34.7168 8.12104 2.1308 -0.151279 -3.05323 0.202932 -4.8623 -19.1427 3.0325 -2.39623 10.0569 -18.5883 37.8821 -3.51023 -0.911752 -0.0279386 2.00738 -3.77501 -2.39396 2.05986 -3.08554 -1.93606 
48.1883 38.7149 39.1131 -5.2083 6.76355 -129.398 1.52675 -6.97258 -0.427227 10.2092 72.6761 2.09336 -1.7782 6.0843 0.0945108 4.05266 -9.15058 4.83595 0.827773 27.9624 -13.482 1.01194 -10.4273 0.0923387 -0.843424 1.85479 -2.32188 0.0693879 3.036 -3.40352 5.99806 0.0173713 1.99423 12.7595 -9.0422 6.13195 -5.96382 -12.9821 -35.0265 7.83035 2.26351 -0.154933 -3.18432 0.20957 -4.79486 -19.1779 1.88306 -2.04828 10.5794 -19.7919 38.2161 -3.95909 -1.28123 -0.0442853 1.97974 -4.04409 -2.50394 2.1444 -3.27925 -2.20365 
47.2868 38.9139 37.9492 -5.97478 6.50263 -130.291 -0.743627 -11.6188 -1.44314 10.2137 75.3641 2.50113 0.634512 0.810455 -0.00448774 3.68612 -5.86822 4.77188 0.824273 26.6689 -12.8167 0.516617 -12.0514 0.0545334 -1.29802 2.16945 -1.72475 -0.285298 3.48122 -2.63518 5.98725 0.017763 2.06151 13.5004 -7.84517 6.88367 -5.58428 -11.3163 -35.1676 7.66972 2.37991 -0.159551 -3.35291 0.218749 -4.64768 -19.2149 0.607771 -1.59946 11.213 -21.0616 38.6494 -4.32003 -1.64305 -0.0619757 1.8689 -4.14125 -2.50724 2.17169 -3.48012 -2.39795 
